<?xml version="1.0" encoding="UTF-8" standalone="no"?>
<!DOCTYPE svg PUBLIC "-//W3C//DTD SVG 1.1//EN" "http://www.w3.org/Graphics/SVG/1.1/DTD/svg11.dtd">
<svg width="100%" height="100%" viewBox="0 0 24 24" version="1.1" xmlns="http://www.w3.org/2000/svg" xmlns:xlink="http://www.w3.org/1999/xlink" xml:space="preserve" xmlns:serif="http://www.serif.com/" style="fill-rule:evenodd;clip-rule:evenodd;stroke-linecap:square;stroke-linejoin:round;">
    <path d="M17,9L17,7.862C17,5.177 14.761,3 12,3C9.239,3 7,5.177 7,7.862L7,9" style="fill:none;fill-rule:nonzero;stroke:black;stroke-width:1px;"/>
    <path d="M19.966,22L21,7L3,7L4.034,22L19.966,22Z" style="fill:none;stroke:black;stroke-width:1px;stroke-linecap:round;stroke-linejoin:miter;"/>
    <path d="M15.913,11.835C15.528,11.331 14.946,11 14.189,11C13.432,11 12.881,11.313 12.514,11.618C12.404,11.71 12.311,11.802 12.234,11.885C12.156,11.802 12.062,11.71 11.952,11.618C11.585,11.313 11.026,11 10.28,11C9.534,11 8.943,11.331 8.558,11.834C8.179,12.328 8,12.974 8,13.613C8,14.322 8.277,14.987 8.665,15.573C9.053,16.159 9.564,16.686 10.066,17.124C10.568,17.563 11.069,17.921 11.444,18.169C11.632,18.293 11.788,18.39 11.899,18.456C11.954,18.489 11.998,18.514 12.028,18.532C12.043,18.541 12.07,18.556 12.072,18.557L12.075,18.559L12.076,18.559L12.235,18.647L12.393,18.559C12.393,18.559 12.402,18.554 12.406,18.552C12.414,18.547 12.426,18.541 12.441,18.532C12.471,18.514 12.515,18.489 12.57,18.456C12.681,18.39 12.837,18.293 13.025,18.169C13.399,17.921 13.9,17.563 14.403,17.124C14.905,16.686 15.416,16.159 15.804,15.573C16.192,14.987 16.469,14.322 16.469,13.613C16.469,12.974 16.291,12.329 15.913,11.835Z" style="fill:rgb(65,105,225);"/>
</svg>
